<?xml version="1.0" encoding="UTF-8"?>
<svg id="Layer_1" data-name="Layer 1" xmlns="http://www.w3.org/2000/svg" viewBox="0 0 904 156">
  <defs>
    <style>
      .cls-1 {
        fill: #fff;
      }
    </style>
  </defs>
  <path class="cls-1" d="M118.57,2.94H35.24L.64,153.36h45.13l8.82-38.21h38.11c39.11,0,58.66-11.43,67.09-56.26,7.22-38.81-5.11-55.96-41.22-55.96ZM116.17,58.9c-2.71,11.73-8.12,14.14-19.86,14.14h-31.94l6.67-27.98h31.89c11.73,0,15.94,2.11,13.24,13.84Z"/>
  <polygon class="cls-1" points="205.22 111.24 230.19 2.94 185.06 2.94 150.16 153.36 259.37 153.36 272.91 111.24 205.22 111.24"/>
  <path class="cls-1" d="M517.49,113.05c-19.86,0-28.88-11.43-22.56-37.91,5.42-22.26,19.25-32.19,41.22-32.19,14.44,0,21.66,4.81,21.36,18.95h46.03c3.91-39.71-22.56-61.07-60.47-61.07-51.14,0-81.53,24.97-92.66,71.3-11.73,49.34,10.53,83.03,63.18,83.03,39.71,0,68.29-18.95,82.43-60.77h-46.33c-5.42,13.54-15.34,18.65-32.19,18.65Z"/>
  <path class="cls-1" d="M839.7,2.94h-62.88l-34.6,150.42h64.98c54.15,0,78.82-17.15,92.96-75.21,11.73-48.14-9.03-75.21-60.47-75.21ZM855.64,75.14c-7.52,29.48-19.55,36.1-41.52,36.1h-17.15l15.64-66.19h17.15c21.96,0,32.79,2.71,25.87,30.08Z"/>
  <polygon class="cls-1" points="724.48 97.71 734.4 58.6 663.38 58.6 667.01 43.55 745.84 43.55 755.46 2.94 631.21 2.94 596.32 153.36 719.36 153.36 729.29 112.75 651.07 112.75 654.35 97.71 724.48 97.71"/>
  <path class="cls-1" d="M400.16,2.94h-46.33l-84.24,150.42h53.25l13.08-25.27h48.79l1.31,25.27h50.24L421.22,2.94h-21.06ZM357.72,85.97l21.17-40.91h1.51l2.12,40.91h-24.81Z"/>
</svg>