<svg width="61" height="16" viewBox="0 0 61 16" fill="none" xmlns="http://www.w3.org/2000/svg">
<g clip-path="url(#clip0_659_231)">
<path fill-rule="evenodd" clip-rule="evenodd" d="M60.3925 2.76793C60.1825 2.52789 59.8975 2.40787 59.515 2.40787C59.1325 2.40787 58.84 2.53539 58.63 2.79793C58.4275 3.05297 58.3225 3.43553 58.3225 3.93061V7.54618C57.85 7.0361 57.3625 6.67604 56.86 6.4285C56.5525 6.27848 56.185 6.16596 55.7725 6.11345C55.5325 6.08345 55.2925 6.06845 55.0225 6.06845C53.7775 6.06845 52.765 6.49601 51.9925 7.35865C51.2275 8.21378 50.845 9.40647 50.845 10.9367C50.845 11.6568 50.9425 12.3319 51.1375 12.9545C51.3325 13.5696 51.61 14.1097 51.985 14.5748C52.36 15.0323 52.81 15.3849 53.32 15.6399C53.83 15.8875 54.385 16.015 54.9925 16.015C55.27 16.015 55.5325 15.9925 55.7725 15.9475C55.9375 15.925 56.0875 15.88 56.245 15.835C56.6275 15.7075 56.9875 15.5274 57.31 15.2949C57.6475 15.0548 57.9775 14.7473 58.315 14.3722V14.6123C58.315 15.0624 58.4275 15.4074 58.6525 15.6549C58.885 15.895 59.17 16.0225 59.5075 16.0225C59.86 16.0225 60.145 15.9025 60.3625 15.6774C60.58 15.4374 60.7 15.0924 60.7 14.6198V3.80309C60.7 3.35302 60.595 3.00047 60.3925 2.76793ZM57.8575 12.752C57.64 13.2096 57.34 13.5546 56.9875 13.7796C56.62 14.0047 56.2225 14.1097 55.78 14.1097H55.7725C55.33 14.1097 54.9325 13.9897 54.565 13.7646C54.1975 13.5246 53.905 13.1796 53.695 12.7145C53.485 12.2494 53.38 11.6793 53.38 11.0192C53.38 10.3891 53.4775 9.83403 53.68 9.36896C53.875 8.89639 54.16 8.52883 54.52 8.27379C54.8875 8.01125 55.2925 7.89123 55.7575 7.89123H55.78C56.215 7.89123 56.6125 8.01875 56.98 8.26629C57.3475 8.51383 57.64 8.87388 57.8575 9.33896C58.075 9.80403 58.18 10.3741 58.18 11.0192C58.18 11.7093 58.075 12.2869 57.8575 12.752ZM49.9375 12.857C49.78 12.722 49.57 12.6545 49.3075 12.6545C49.0675 12.6545 48.895 12.7145 48.76 12.812C48.445 13.097 48.19 13.3296 47.995 13.4946C47.8 13.6521 47.5825 13.8097 47.3425 13.9597C47.1175 14.1022 46.87 14.2147 46.6225 14.2747C46.3675 14.3422 46.0975 14.3797 45.7975 14.3797C45.73 14.3797 45.67 14.3797 45.61 14.3722C45.235 14.3497 44.8825 14.2447 44.5675 14.0572C44.1925 13.8397 43.9 13.5246 43.6675 13.112C43.45 12.6845 43.33 12.1894 43.3225 11.6343H48.25C48.91 11.6343 49.42 11.5368 49.78 11.3643C50.1475 11.1767 50.3275 10.7792 50.3275 10.1641C50.3275 9.49648 50.1475 8.84388 49.795 8.20628C49.4425 7.56868 48.925 7.0436 48.2125 6.64604C47.5075 6.24097 46.6675 6.04594 45.685 6.04594H45.61C44.8825 6.05344 44.215 6.17346 43.6225 6.3985C43 6.63853 42.4825 6.97609 42.0475 7.41115C41.635 7.85372 41.305 8.38631 41.0875 9.0089C40.87 9.6315 40.75 10.3066 40.75 11.0267C40.75 12.5645 41.2 13.7721 42.0925 14.6723C42.94 15.5199 44.11 15.97 45.6025 16.015C45.685 16.0225 45.775 16.0225 45.865 16.0225C46.5625 16.0225 47.1925 15.9325 47.74 15.7525C48.2875 15.5724 48.7375 15.3474 49.0975 15.0774C49.4575 14.7998 49.7275 14.5148 49.9 14.2222C50.08 13.9297 50.17 13.6671 50.17 13.4496C50.185 13.1871 50.1025 12.9845 49.9375 12.857ZM44.0725 8.3713C44.47 7.95124 44.9875 7.74121 45.6175 7.74121H45.625C46.2775 7.74121 46.81 7.94374 47.2075 8.3563C47.605 8.76887 47.845 9.39897 47.8975 10.2391H43.3375C43.42 9.41397 43.66 8.79137 44.0725 8.3713ZM39.235 12.647C38.9875 12.647 38.815 12.707 38.68 12.8045C38.3725 13.0895 38.11 13.3221 37.915 13.4871C37.72 13.6446 37.51 13.8022 37.27 13.9522C37.0375 14.0947 36.7975 14.2072 36.5425 14.2672C36.295 14.3347 36.0175 14.3722 35.7175 14.3722C35.65 14.3722 35.59 14.3722 35.53 14.3647C35.155 14.3422 34.8025 14.2372 34.4875 14.0497C34.12 13.8322 33.82 13.5171 33.6025 13.1045C33.37 12.677 33.2575 12.1819 33.25 11.6268H38.17C38.8225 11.6268 39.3325 11.5293 39.7 11.3568C40.06 11.1692 40.24 10.7717 40.24 10.1566C40.24 9.48898 40.0675 8.83638 39.715 8.19878C39.3625 7.56118 38.8375 7.0361 38.1325 6.63853C37.4275 6.23347 36.58 6.03844 35.605 6.03844H35.5225C34.795 6.04594 34.135 6.16596 33.535 6.391C32.9125 6.63103 32.395 6.96859 31.9675 7.40365C31.5475 7.84622 31.2175 8.37881 31 9.0014C30.775 9.624 30.6625 10.2991 30.6625 11.0192C30.6625 12.557 31.12 13.7646 32.0125 14.6648C32.86 15.5124 34.0225 15.9625 35.515 16.0075C35.605 16.015 35.6875 16.015 35.7775 16.015C36.4825 16.015 37.105 15.925 37.6525 15.745C38.2 15.5649 38.65 15.3399 39.0025 15.0699C39.37 14.7923 39.6325 14.5073 39.8125 14.2147C39.9925 13.9222 40.0825 13.6596 40.0825 13.4421C40.0825 13.1946 40 12.9995 39.8425 12.8645C39.7 12.7145 39.4825 12.647 39.235 12.647ZM33.985 8.3713C34.3825 7.95124 34.9 7.74121 35.53 7.74121H35.5375C36.19 7.74121 36.7225 7.94374 37.12 8.3563C37.525 8.76887 37.7575 9.39897 37.8175 10.2391H33.25C33.34 9.41397 33.5875 8.79137 33.985 8.3713ZM5.93498 14.3797V8.53633C6.10748 8.55133 6.27248 8.55883 6.43748 8.55883C7.25498 8.55883 8.01998 8.3413 8.67248 7.96624V14.3797C8.67248 14.9273 8.54498 15.3324 8.28998 15.6024C8.03498 15.8725 7.70498 16.0075 7.29248 16.0075C6.89498 16.0075 6.57248 15.8725 6.31748 15.5949C6.06998 15.3174 5.93498 14.9198 5.93498 14.3797ZM29.62 2.76793C29.41 2.52789 29.1175 2.40787 28.75 2.40787C28.3675 2.40787 28.075 2.53539 27.865 2.79793C27.655 3.05297 27.5575 3.43553 27.5575 3.93061V7.54618C27.085 7.0361 26.5975 6.67604 26.095 6.4285C25.78 6.27848 25.42 6.16596 25.015 6.11345C24.7825 6.08345 24.535 6.06845 24.265 6.06845C23.02 6.06845 22 6.49601 21.235 7.35865C20.47 8.21378 20.0875 9.40647 20.0875 10.9367C20.0875 11.6568 20.185 12.3319 20.3725 12.9545C20.5675 13.5696 20.8525 14.1097 21.2275 14.5748C21.6025 15.0323 22.0525 15.3849 22.5625 15.6399C23.08 15.8875 23.6275 16.015 24.235 16.015C24.505 16.015 24.7675 15.9925 25.015 15.9475C25.18 15.925 25.33 15.88 25.4875 15.835C25.87 15.7075 26.23 15.5274 26.5525 15.2949C26.89 15.0548 27.2125 14.7473 27.5575 14.3722V14.6123C27.5575 15.0624 27.67 15.4074 27.895 15.6549C28.1125 15.895 28.4125 16.0225 28.75 16.0225C29.0875 16.0225 29.38 15.9025 29.5975 15.6774C29.815 15.4374 29.92 15.0924 29.92 14.6198V3.80309C29.92 3.35302 29.8225 3.00047 29.62 2.76793ZM27.0925 12.752C26.875 13.2096 26.575 13.5546 26.215 13.7796C25.855 14.0047 25.45 14.1097 25.015 14.1097H25.0075C24.565 14.1097 24.1675 13.9897 23.8 13.7646C23.425 13.5246 23.14 13.1796 22.93 12.7145C22.72 12.2494 22.615 11.6793 22.615 11.0192C22.615 10.3891 22.7125 9.83403 22.9075 9.36896C23.11 8.89639 23.3875 8.52883 23.755 8.27379C24.115 8.01125 24.5275 7.89123 24.985 7.89123H25.015C25.45 7.89123 25.8475 8.01875 26.2075 8.26629C26.5825 8.51383 26.875 8.87388 27.0925 9.33896C27.3025 9.80403 27.415 10.3741 27.415 11.0192C27.415 11.7093 27.3025 12.2869 27.0925 12.752ZM12.6925 7.40365V7.7037C13.1425 7.13361 13.6225 6.72105 14.14 6.451C14.6725 6.18846 15.2725 6.05344 15.955 6.05344C16.615 6.05344 17.2075 6.19597 17.7325 6.47351C18.2575 6.75105 18.64 7.14861 18.895 7.66619C19.0675 7.96624 19.1725 8.29629 19.2175 8.64135C19.2625 8.9789 19.2925 9.42897 19.2925 9.96905V14.5148C19.2925 15.0098 19.1725 15.3774 18.94 15.6249C18.715 15.88 18.4075 16.0075 18.04 16.0075C17.665 16.0075 17.365 15.88 17.125 15.6174C16.885 15.3624 16.7725 14.9948 16.7725 14.5148V10.4416C16.7725 9.6315 16.66 9.01641 16.4275 8.58884C16.2025 8.16127 15.7375 7.94374 15.0475 7.94374C14.5975 7.94374 14.1925 8.07876 13.825 8.3338C13.4575 8.59634 13.18 8.94889 13.0075 9.41397C12.8875 9.78152 12.8275 10.4566 12.8275 11.4618V14.5148C12.8275 15.0173 12.7075 15.3774 12.4675 15.6324C12.2275 15.88 11.9275 16.0075 11.5525 16.0075C11.185 16.0075 10.8925 15.88 10.6525 15.6174C10.4125 15.3624 10.3 14.9948 10.3 14.5148V7.44116C10.3 6.97609 10.405 6.62353 10.615 6.3985C10.8175 6.16596 11.1025 6.04594 11.47 6.04594C11.6875 6.04594 11.8825 6.09095 12.0625 6.19596C12.2425 6.30098 12.385 6.451 12.4975 6.65354C12.6475 6.87107 12.6925 7.11861 12.6925 7.40365ZM5.94998 0.375056C7.64498 -0.217537 9.57998 -0.187532 11.0275 1.03516C11.2975 1.2827 11.605 1.59025 11.725 1.9578C11.875 2.41537 11.215 1.9128 11.1175 1.84529C10.645 1.54524 10.1725 1.2902 9.63998 1.11767C6.78998 0.262538 4.08998 1.80778 2.40998 4.21566C1.71998 5.27332 1.26248 6.391 0.88748 7.62119C0.84998 7.75621 0.81248 7.92874 0.73748 8.04875C0.66248 8.18378 0.70748 7.6887 0.70748 7.66619C0.76748 7.15611 0.87248 6.66854 0.99998 6.17346C1.77998 3.56305 3.48998 1.38021 5.94998 0.375056ZM9.23498 5.08579C9.23498 6.19597 8.33498 7.10361 7.22498 7.10361C6.11498 7.10361 5.21498 6.20347 5.21498 5.08579C5.21498 3.96812 6.11498 3.06798 7.22498 3.06798C8.33498 3.06798 9.23498 3.96812 9.23498 5.08579Z" fill="#003A9B"/>
</g>
<defs>
<clipPath id="clip0_659_231">
<rect width="60" height="16" fill="white" transform="translate(0.699951)"/>
</clipPath>
</defs>
</svg>
