<svg width="65" height="16" viewBox="0 0 65 16" fill="none" xmlns="http://www.w3.org/2000/svg">
<path fill-rule="evenodd" clip-rule="evenodd" d="M63.6263 0H49.9913C49.3391 0 48.7852 0.51581 48.7852 1.15124V14.848C48.7852 15.4842 49.1486 16 49.8008 16H63.4358C64.0888 16 64.7852 15.4842 64.7852 14.848V1.15124C64.7852 0.51581 64.2793 0 63.6263 0Z" fill="white"/>
<path fill-rule="evenodd" clip-rule="evenodd" d="M63.6263 0H49.9913C49.3391 0 48.7852 0.51581 48.7852 1.15124V14.848C48.7852 15.4842 49.1486 16 49.8008 16H63.4358C64.0888 16 64.7852 15.4842 64.7852 14.848V1.15124C64.7852 0.51581 64.2792 0 63.6263 0ZM54.8804 6.09524H57.0343V7.19314H57.0579C57.3863 6.60114 58.3562 6 59.5554 6C61.8572 6 62.4994 7.2221 62.4994 9.48571V13.7143H60.2137V9.90248C60.2137 8.88914 59.8092 8 58.8629 8C57.7139 8 57.1661 8.7779 57.1661 10.0549V13.7143H54.8804V6.09524ZM51.0709 13.7143H53.3566V6.09524H51.0709V13.7143ZM53.6423 3.42857C53.6423 4.21791 53.0031 4.85714 52.2137 4.85714C51.4244 4.85714 50.7852 4.21791 50.7852 3.42857C50.7852 2.63924 51.4244 2 52.2137 2C53.0031 2 53.6423 2.63924 53.6423 3.42857Z" fill="#0073B0"/>
<path d="M46.4995 13.7143H44.3662V12.8068H44.3433C43.8687 13.3569 43.0443 13.8095 41.6469 13.8095C39.7422 13.8095 38.1018 12.3764 38.1018 9.91313C38.1018 7.56647 39.7186 5.99999 41.7186 5.99999C42.9567 5.99999 43.7254 6.44037 44.1909 7.00266H44.2138V2.28571H46.4995V13.7143ZM42.293 7.71428C40.9864 7.71428 40.2519 8.64609 40.2519 9.88494C40.2519 11.1246 40.9864 12.0952 42.293 12.0952C43.6012 12.0952 44.3662 11.1497 44.3662 9.88494C44.3662 8.58513 43.6012 7.71428 42.293 7.71428Z" fill="black"/>
<path d="M37.0983 12.4867C36.5589 13.1853 35.448 13.8093 33.6545 13.8093C31.2614 13.8093 29.7375 12.2253 29.7375 9.73544C29.7375 7.52363 31.1181 5.99982 33.7215 5.99982C35.9699 5.99982 37.3566 7.47639 37.3566 10.0737C37.3566 10.3335 37.3147 10.5903 37.3147 10.5903H31.8945L31.9075 10.8257C32.0575 11.4825 32.5536 12.2855 33.6918 12.2855C34.6854 12.2855 35.3665 11.7514 35.6743 11.3332L37.0983 12.4867ZM35.157 9.14267C35.1722 8.33886 34.5825 7.52363 33.653 7.52363C32.5467 7.52363 31.9562 8.38763 31.8945 9.14267H35.157Z" fill="black"/>
<path d="M29.7375 6.09523H27.0708L24.4041 9.14285V2.28571H22.1184V13.7143H24.4041V9.90475L27.2224 13.7143H29.9211L26.6898 9.54894L29.7375 6.09523Z" fill="black"/>
<path d="M12.9756 6.09524H15.1295V7.19314H15.1531C15.4815 6.60114 16.4514 6 17.6506 6C19.9523 6 20.5946 7.46057 20.5946 9.48571V13.7143H18.3089V9.90248C18.3089 8.78095 17.9043 8 16.9581 8C15.8091 8 15.2613 8.90971 15.2613 10.0549V13.7143H12.9756V6.09524Z" fill="black"/>
<path d="M9.16607 13.7143H11.4518V6.09522H9.16607V13.7143ZM10.3097 4.79999C11.067 4.79999 11.6804 4.18589 11.6804 3.42856C11.6804 2.67122 11.067 2.05713 10.3097 2.05713C9.55312 2.05713 8.9375 2.67122 8.9375 3.42856C8.9375 4.18589 9.55312 4.79999 10.3097 4.79999Z" fill="black"/>
<path d="M3.07087 2.28571H0.785156V13.7143H7.6423V11.4286H3.07087V2.28571Z" fill="black"/>
<path fill-rule="evenodd" clip-rule="evenodd" d="M63.2929 0H49.6579C49.0059 0 48.4519 0.515667 48.4519 1.15133V14.8483C48.4519 15.484 49.0059 16 49.6579 16H63.2929C63.9459 16 64.4519 15.484 64.4519 14.8483V1.15133C64.4519 0.515667 63.9459 0 63.2929 0Z" fill="white"/>
<path fill-rule="evenodd" clip-rule="evenodd" d="M63.2929 0H49.6579C49.0059 0 48.4519 0.515667 48.4519 1.15133V14.8483C48.4519 15.484 49.0059 16 49.6579 16H63.2929C63.9459 16 64.4519 15.484 64.4519 14.8483V1.15133C64.4519 0.515667 63.9459 0 63.2929 0ZM54.7851 6H56.9517V7.08867C57.2641 6.46267 58.0644 5.9 59.2667 5.9C61.5714 5.9 62.1184 7.146 62.1184 9.43233V13.6667H59.7851V9.953C59.7851 8.651 59.4727 7.91667 58.6784 7.91667C57.5767 7.91667 57.1184 8.70833 57.1184 9.953V13.6667H54.7851V6ZM50.7851 13.6667H53.1184V6H50.7851V13.6667ZM53.4517 3.5C53.4517 4.32833 52.7801 5 51.9517 5C51.1234 5 50.4517 4.32833 50.4517 3.5C50.4517 2.67167 51.1234 2 51.9517 2C52.7801 2 53.4517 2.67167 53.4517 3.5Z" fill="#0073B0"/>
<path d="M46.1185 13.6666H44.1185V12.4999C43.7545 13.0539 42.6941 13.7666 41.6185 13.7666C39.3411 13.7666 37.8518 12.3249 37.8518 9.99992C37.8518 7.86458 39.1021 5.89992 41.2851 5.89992C42.2655 5.89992 43.2478 6.09058 43.7851 6.83325V2.33325H46.1185V13.6666ZM41.8685 7.96658C40.6821 7.96658 40.0851 8.67892 40.0851 9.83325C40.0851 10.9879 40.6821 11.7333 41.8685 11.7333C43.0551 11.7333 43.8185 10.9879 43.8185 9.83325C43.8185 8.67892 43.0551 7.96658 41.8685 7.96658Z" fill="black"/>
<path d="M36.7851 12.3748C36.0257 13.3398 34.5037 13.7665 33.0351 13.7665C30.6627 13.7665 29.1851 12.1178 29.1851 9.66651C29.1851 7.21484 30.9517 5.89984 33.3684 5.89984C35.3684 5.89984 37.0517 7.30551 37.0517 9.99984C37.0517 10.4165 36.9851 10.6665 36.9851 10.6665H31.4517L31.4887 10.8898C31.6217 11.6242 32.4094 11.9998 33.3267 11.9998C34.1014 11.9998 34.6814 11.6625 35.0767 11.1248L36.7851 12.3748ZM34.7017 8.99984C34.7174 8.20884 34.0817 7.56651 33.2277 7.56651C32.1834 7.56651 31.5147 8.25651 31.4517 8.99984H34.7017Z" fill="black"/>
<path d="M21.7852 2.33325H24.1185V8.99992L26.7852 5.99992H29.7018L26.4518 9.49992L29.5768 13.6666H26.7852L24.1185 9.99992V13.6666H21.7852V2.33325Z" fill="black"/>
<path d="M13.1184 5.99984H15.1184V7.12484C15.4341 6.52384 16.4641 5.89984 17.6184 5.89984C20.0227 5.89984 20.4517 7.31884 20.4517 9.37484V13.6665H18.1184V9.87484C18.1184 8.98951 18.1691 7.93317 16.9517 7.93317C15.7184 7.93317 15.4517 8.87851 15.4517 9.87484V13.6665H13.1184V5.99984Z" fill="black"/>
<path d="M10.6185 2.04163C11.3895 2.04163 12.0768 2.72963 12.0768 3.49996C12.0768 4.27029 11.3895 4.95829 10.6185 4.95829C9.84849 4.95829 9.16016 4.27029 9.16016 3.49996C9.16016 2.72963 9.84849 2.04163 10.6185 2.04163ZM9.45182 13.6666H11.7852V5.99996H9.45182V13.6666Z" fill="black"/>
<path d="M0.785156 2.33325H3.11849V11.3333H8.11849V13.6666H0.785156V2.33325Z" fill="black"/>
</svg>
