<svg width="99" height="16" viewBox="0 0 99 16" fill="none" xmlns="http://www.w3.org/2000/svg">
<path d="M13.1911 11.5576C11.3154 12.2322 9.35744 12.6929 7.38302 12.9397H7.36656C7.13621 12.9726 6.90586 12.989 6.67551 13.0219C6.13255 13.0713 5.58958 13.1042 5.04661 13.1206C4.40493 13.1371 3.76324 13.1371 3.12155 13.1206C2.4305 13.1042 1.77236 12.8574 1.24585 12.4461C3.03928 12.1663 4.79981 11.7879 6.54389 11.2943C7.97534 10.8994 9.35744 10.3894 10.7066 9.76412C11.4964 9.40215 12.2697 8.99081 13.0101 8.51365C13.8163 8.0036 14.5897 7.44418 15.2972 6.81894C15.3465 6.76958 15.3959 6.73668 15.4452 6.68732C16.1363 8.57947 15.2643 10.8171 13.1911 11.5576Z" fill="#0C2577"/>
<path d="M14.1782 4.82804C14.0466 4.91031 13.915 5.00903 13.7998 5.0913C13.2898 5.45328 12.7797 5.7988 12.2532 6.12787C12.2203 6.14432 12.1874 6.17724 12.1545 6.19369C11.595 6.55567 11.0192 6.88473 10.4268 7.2138C10.1142 7.37834 9.8016 7.55933 9.48899 7.70741C8.89666 8.02003 8.28788 8.29974 7.6791 8.57945C7.25131 8.77689 6.80706 8.95788 6.36281 9.13887C4.89845 9.7312 3.40118 10.2248 1.88746 10.6197L0.225649 11.031C-0.0376075 10.3564 -0.0705155 9.61602 0.126927 8.92497C0.850882 6.42403 1.83809 4.71287 3.22019 2.5081C4.79973 0.00715994 8.10689 -0.749703 10.6078 0.813382C10.8875 0.994371 11.1508 1.19181 11.3811 1.40571C12.4671 2.40938 13.1746 3.64339 14.1782 4.82804Z" fill="#0C2577"/>
<path d="M21.7963 11.6069C21.1546 11.3601 20.5787 10.9652 20.118 10.4387C20.0028 10.3071 19.937 10.159 19.937 9.978C19.937 9.74765 20.0522 9.53376 20.2332 9.38568C20.3648 9.2705 20.5129 9.20469 20.6939 9.20469C20.9078 9.20469 21.1052 9.30341 21.2204 9.4844C21.533 9.86283 21.9279 10.159 22.3721 10.3235C22.8822 10.521 23.4252 10.6197 23.9681 10.6197C24.8237 10.6197 25.4654 10.4552 25.8767 10.1425C26.2881 9.86283 26.5349 9.40213 26.5349 8.90852C26.5349 8.43137 26.321 8.03649 25.8932 7.72387C25.4654 7.41125 24.7908 7.1809 23.8694 7.01637C22.6848 6.80247 21.7798 6.44049 21.2039 5.93043C20.6281 5.42038 20.3154 4.77869 20.3154 4.03828C20.3154 3.08397 20.661 2.34357 21.352 1.81705C22.0431 1.29054 22.8986 1.02728 23.9352 1.02728C24.7414 1.02728 25.4325 1.17536 26.0248 1.47153C26.6007 1.75124 27.0943 2.17903 27.4727 2.70554C27.555 2.83717 27.6044 3.00171 27.6208 3.16624C27.6208 3.38014 27.5056 3.57758 27.3246 3.69275C27.2259 3.75857 27.0943 3.79148 26.9791 3.79148C26.7323 3.79148 26.502 3.69275 26.3374 3.49531C25.7451 2.7549 24.9224 2.39293 23.8859 2.39293C23.2113 2.39293 22.6848 2.54101 22.2734 2.83717C21.8785 3.13333 21.6646 3.49531 21.6646 3.95601C21.6482 4.40026 21.8621 4.82805 22.2241 5.0913C22.6025 5.37101 23.2771 5.60136 24.2314 5.7659C25.5312 5.99625 26.4691 6.39113 27.0285 6.91765C27.5714 7.42771 27.8841 8.15166 27.8676 8.89207C27.8676 9.46794 27.7031 10.0274 27.374 10.5045C27.012 10.9981 26.5349 11.3766 25.9755 11.6069C25.3338 11.8866 24.6427 12.0182 23.9517 12.0018C23.2277 12.0182 22.4873 11.8866 21.7963 11.6069Z" fill="#0C2577"/>
<path d="M34.1036 10.8501C34.2187 10.9817 34.2845 11.1462 34.2681 11.3272C34.2681 11.4918 34.2187 11.6398 34.12 11.7715C33.9884 11.936 33.7745 12.0347 33.5606 12.0183H33.1986C32.6227 12.0347 32.0633 11.8702 31.5862 11.574C31.109 11.2779 30.7306 10.8501 30.4673 10.3565C30.1876 9.8135 30.056 9.22118 30.0724 8.6124V4.38384H29.3814C29.0688 4.4003 28.8055 4.16994 28.7891 3.85733C28.7891 3.84087 28.7891 3.82442 28.7891 3.80797C28.7891 3.64343 28.8384 3.49535 28.9536 3.38018C29.0688 3.265 29.2333 3.19919 29.3814 3.21564H30.0724V2.24488C30.0724 2.06389 30.1218 1.8829 30.2534 1.75127C30.3686 1.61965 30.5496 1.55383 30.7141 1.55383C30.8951 1.55383 31.0596 1.61965 31.1913 1.75127C31.3229 1.8829 31.3887 2.06389 31.3723 2.24488V3.19919H33.2973C33.4619 3.19919 33.6099 3.24855 33.7251 3.36372C33.8403 3.4789 33.8897 3.64343 33.8897 3.79151C33.9061 4.10413 33.6593 4.36739 33.3467 4.38384C33.3302 4.38384 33.3138 4.38384 33.2973 4.38384H31.3723V8.6124C31.3723 9.22118 31.5368 9.71478 31.8823 10.0932C32.2114 10.4716 32.6885 10.6855 33.1986 10.6691H33.6593C33.8238 10.6526 33.9884 10.7184 34.1036 10.8501Z" fill="#0C2577"/>
<path d="M56.5297 11.6069C55.888 11.3601 55.3121 10.9652 54.8514 10.4387C54.7362 10.3071 54.6704 10.159 54.6704 9.978C54.6704 9.74765 54.7856 9.53376 54.9666 9.38568C55.0982 9.2705 55.2463 9.20469 55.4273 9.20469C55.6412 9.20469 55.8386 9.30341 55.9538 9.4844C56.2664 9.86283 56.6613 10.159 57.1055 10.3235C57.6156 10.521 58.1586 10.6197 58.7015 10.6197C59.5571 10.6197 60.1988 10.4552 60.6101 10.1425C61.0215 9.86283 61.2683 9.40213 61.2683 8.90852C61.2683 8.43137 61.0544 8.03649 60.6266 7.72387C60.1988 7.41125 59.5242 7.1809 58.6028 7.01637C57.4182 6.80247 56.5132 6.44049 55.9373 5.93043C55.345 5.40392 55.0488 4.77869 55.0488 4.03828C55.0488 3.08397 55.3944 2.34357 56.0854 1.81705C56.7765 1.29054 57.632 1.02728 58.6686 1.02728C59.4748 1.02728 60.1659 1.17536 60.7582 1.47153C61.3341 1.75124 61.8277 2.17903 62.2061 2.70554C62.2884 2.83717 62.3378 3.00171 62.3542 3.16624C62.3542 3.38014 62.2555 3.57758 62.058 3.69275C61.9593 3.75857 61.8277 3.79148 61.7125 3.79148C61.4657 3.79148 61.2189 3.69275 61.0708 3.49531C60.4785 2.7549 59.6558 2.39293 58.6357 2.39293C57.9611 2.39293 57.4346 2.54101 57.0233 2.83717C56.6284 3.13333 56.4145 3.49531 56.4145 3.95601C56.398 4.40026 56.6119 4.82805 56.9739 5.0913C57.3523 5.37101 58.0269 5.60136 58.9812 5.7659C60.2811 5.99625 61.2189 6.39113 61.7783 6.91765C62.3213 7.42771 62.6339 8.15166 62.6175 8.89207C62.6339 9.46794 62.4529 10.0274 62.1239 10.5045C61.7619 10.9981 61.2847 11.3766 60.7253 11.6069C60.0836 11.8866 59.3926 12.0182 58.7015 12.0018C57.9611 12.0182 57.2207 11.8866 56.5297 11.6069Z" fill="#0C2577"/>
<path d="M68.8369 10.8501C68.9521 10.9817 69.0179 11.1462 69.0015 11.3272C69.0015 11.4918 68.9521 11.6398 68.8534 11.7715C68.7218 11.936 68.5079 12.0347 68.294 12.0183H67.932C67.3561 12.0347 66.7967 11.8702 66.3196 11.574C65.8424 11.2779 65.464 10.8501 65.2007 10.3565C64.921 9.8135 64.7894 9.22118 64.8058 8.6124V4.38384H64.1148C63.8022 4.4003 63.5389 4.16994 63.5225 3.85733C63.5225 3.84087 63.5225 3.82442 63.5225 3.80797C63.5225 3.64343 63.5718 3.49535 63.687 3.38018C63.8022 3.265 63.9667 3.19919 64.1148 3.21564H64.8058V2.24488C64.8058 2.06389 64.8716 1.8829 64.9868 1.75127C65.102 1.61965 65.283 1.55383 65.4475 1.55383C65.6285 1.55383 65.793 1.61965 65.9247 1.75127C66.0563 1.8829 66.1221 2.06389 66.1057 2.24488V3.19919H68.0307C68.1953 3.19919 68.3433 3.24855 68.4585 3.36372C68.5737 3.4789 68.6231 3.64343 68.6231 3.79151C68.6395 4.10413 68.3927 4.36739 68.0801 4.38384C68.0636 4.38384 68.0472 4.38384 68.0307 4.38384H66.1057V8.6124C66.1057 9.22118 66.2702 9.71478 66.6157 10.0932C66.9448 10.4716 67.4219 10.6855 67.932 10.6691H68.3927C68.5737 10.6526 68.7382 10.7184 68.8369 10.8501Z" fill="#0C2577"/>
<path d="M51.6099 2.95238C49.4381 1.65255 46.6081 2.3436 45.3082 4.51547C45.2753 4.58128 45.2424 4.63064 45.2095 4.69646C44.7982 5.45332 44.5843 6.3089 44.6007 7.16449V11.245C44.6007 11.2943 44.6007 11.3601 44.6172 11.4095V15.2925C44.6172 15.4735 44.683 15.6545 44.7982 15.8026C44.9134 15.9342 45.0943 16 45.2753 16C45.4563 16 45.6373 15.9342 45.7525 15.8026C45.8841 15.671 45.9499 15.49 45.9499 15.2925V10.2907C46.7397 11.393 48.0231 12.0347 49.3887 12.0183C50.1949 12.0347 51.0012 11.8044 51.6922 11.3766C52.3833 10.9488 52.9427 10.3565 53.3211 9.63252C53.716 8.87565 53.9299 8.02007 53.9134 7.16449C53.9299 6.3089 53.716 5.45332 53.3047 4.69646C52.8933 3.9725 52.3174 3.36372 51.6099 2.95238ZM52.5972 7.18094C52.6136 7.82263 52.4491 8.44786 52.1529 9.00728C51.5935 10.0932 50.4582 10.7678 49.2406 10.7514C48.418 10.7678 47.6117 10.4552 47.0194 9.89577C46.4106 9.3199 46.0486 8.57949 45.9335 7.691C45.9335 7.65809 45.9335 7.62519 45.917 7.59228C45.9006 7.4442 45.9006 7.31257 45.9006 7.16449C45.8841 6.5228 46.0486 5.89756 46.3448 5.33814C46.6245 4.81163 47.0359 4.36739 47.5459 4.05477C48.056 3.74215 48.6483 3.57762 49.2406 3.57762C49.8494 3.57762 50.4417 3.74215 50.9518 4.05477C51.4619 4.36739 51.8732 4.81163 52.1529 5.33814C52.4491 5.91402 52.5972 6.53925 52.5972 7.18094Z" fill="#0C2577"/>
<path d="M76.5536 2.93593C75.8297 2.50814 75.007 2.29424 74.1843 2.3107C73.3452 2.29424 72.5225 2.52459 71.7986 2.93593C71.0911 3.34727 70.5152 3.95605 70.1368 4.68C69.7254 5.45332 69.528 6.3089 69.528 7.16449C69.5115 8.03652 69.7254 8.89211 70.1368 9.64897C70.5152 10.3729 71.1075 10.9653 71.7986 11.3766C73.2794 12.2157 75.0893 12.2157 76.5701 11.3766C77.2776 10.9653 77.8535 10.3565 78.2319 9.64897C78.6432 8.89211 78.8407 8.03652 78.8407 7.16449C78.8571 6.29245 78.6432 5.43687 78.2319 4.68C77.837 3.95605 77.2611 3.36372 76.5536 2.93593ZM75.8955 10.2907C74.8425 10.9159 73.5262 10.9159 72.4732 10.2907C71.9631 9.97804 71.5518 9.53379 71.2721 9.00728C70.9759 8.44786 70.8278 7.80618 70.8278 7.18094C70.8114 6.53925 70.9759 5.89756 71.2721 5.33814C71.8315 4.25221 72.9668 3.57762 74.1843 3.59407C75.4019 3.57762 76.5372 4.25221 77.0966 5.33814C77.3928 5.91402 77.5409 6.53925 77.5244 7.18094C77.5409 7.82263 77.3928 8.44786 77.0966 9.00728C76.8169 9.53379 76.4056 9.97804 75.8955 10.2907Z" fill="#0C2577"/>
<path d="M86.7219 2.90298C86.0638 2.541 85.3399 2.37646 84.583 2.37646C83.9907 2.37646 83.4148 2.49164 82.8718 2.73844C82.3782 2.96879 81.934 3.29786 81.572 3.69275V3.16623C81.572 2.98525 81.5062 2.80426 81.391 2.65617C81.2758 2.52455 81.0948 2.45873 80.9139 2.45873C80.7329 2.45873 80.5519 2.52455 80.4367 2.65617C80.3051 2.7878 80.2393 2.96879 80.2393 3.16623V11.3107C80.2393 11.4917 80.3051 11.6727 80.4367 11.8043C80.5683 11.936 80.7329 12.0018 80.9139 12.0018C81.0948 12.0018 81.2594 11.936 81.391 11.8043C81.5226 11.6727 81.5884 11.4917 81.572 11.3107V6.17723C81.572 5.71653 81.7036 5.27228 81.9504 4.89385C82.2137 4.51542 82.5592 4.20281 82.987 3.98891C83.4477 3.75856 83.9413 3.65984 84.4514 3.65984C85.3234 3.65984 86.0474 3.9231 86.5903 4.46606C87.1333 4.99258 87.413 5.78234 87.413 6.80246V11.3107C87.413 11.4917 87.4788 11.6727 87.6104 11.8043C87.7585 11.9524 87.9724 12.0347 88.1863 12.0018C88.285 11.9853 88.3673 11.9524 88.4496 11.9031C88.647 11.7714 88.7457 11.5575 88.7457 11.3272V6.81892C88.7457 5.89752 88.5647 5.0913 88.2028 4.4167C87.8572 3.79147 87.3472 3.26495 86.7219 2.90298Z" fill="#0C2577"/>
<path d="M42.7579 4.58128C42.0833 3.16628 40.6519 2.27779 39.0888 2.3107C37.4599 2.27779 35.9626 3.19919 35.2551 4.66355C34.8767 5.40396 34.6957 6.24309 34.6957 7.18094C34.6793 8.05298 34.8932 8.90856 35.288 9.68188C35.6665 10.4058 36.2423 10.9982 36.9334 11.4095C38.1674 12.117 39.6482 12.2322 40.9645 11.7057C41.4746 11.5247 41.9517 11.245 42.3795 10.8994C42.4947 10.8007 42.5769 10.6362 42.5769 10.4881C42.5769 10.3071 42.4947 10.1261 42.3466 9.99449C42.2314 9.91223 42.0998 9.86287 41.9682 9.84641C41.8036 9.84641 41.6391 9.91223 41.5075 10.0274C41.2278 10.2742 40.8987 10.4552 40.5367 10.5704C40.1583 10.7184 39.7469 10.7843 39.3356 10.7843C38.4142 10.7843 37.6409 10.4881 37.0321 9.91223C36.4233 9.33635 36.0778 8.57949 35.9791 7.65809C35.9791 7.65809 35.6994 5.70013 37.0157 4.38384C37.5586 3.84088 38.2661 3.57762 39.0888 3.57762C39.9279 3.57762 40.5861 3.85733 41.1126 4.38384C41.6391 4.92681 41.9353 5.61786 42.034 6.48989H37.4764C37.1637 6.47344 36.9169 6.70379 36.9005 7.01641C36.9005 7.03286 36.9005 7.04931 36.9005 7.06577C36.9005 7.2303 36.9498 7.37839 37.065 7.49356C37.1802 7.60873 37.3283 7.65809 37.4928 7.65809H42.6757C42.8402 7.65809 43.0047 7.60873 43.1199 7.49356C43.2351 7.37839 43.3009 7.19739 43.3009 7.03286C43.2845 6.09501 43.1199 5.28878 42.7579 4.58128Z" fill="#0C2577"/>
<path d="M98.1571 4.58128C97.4825 3.16628 96.0511 2.27779 94.488 2.3107C92.8591 2.27779 91.3618 3.19919 90.6543 4.66355C90.2759 5.40396 90.0949 6.24309 90.0949 7.18094C90.0784 8.05298 90.2923 8.90856 90.6872 9.68188C91.0656 10.4058 91.6415 10.9982 92.3326 11.4095C93.5666 12.117 95.0474 12.2322 96.3637 11.7057C96.8737 11.5247 97.3509 11.245 97.7787 10.8994C97.8939 10.8007 97.9761 10.6362 97.9761 10.4881C97.9761 10.3071 97.8939 10.1261 97.7458 9.99449C97.6306 9.91223 97.499 9.86287 97.3673 9.84641C97.2028 9.84641 97.0383 9.91223 96.9066 10.0274C96.6269 10.2742 96.2979 10.4552 95.9359 10.5704C95.5574 10.7184 95.1461 10.7843 94.7348 10.7843C93.8134 10.7843 93.0401 10.4881 92.4313 9.91223C91.8225 9.33635 91.477 8.57949 91.3783 7.65809C91.3783 7.65809 91.0985 5.70013 92.4148 4.38384C92.9578 3.84088 93.6653 3.57762 94.488 3.57762C95.3106 3.57762 95.9852 3.85733 96.5118 4.38384C97.0383 4.92681 97.3344 5.61786 97.4332 6.48989H92.8755C92.5629 6.47344 92.3161 6.70379 92.2996 7.01641C92.2996 7.03286 92.2996 7.04931 92.2996 7.06577C92.2996 7.2303 92.349 7.37839 92.4642 7.49356C92.5794 7.60873 92.7274 7.65809 92.892 7.65809H98.0748C98.2394 7.65809 98.4039 7.60873 98.5191 7.49356C98.6343 7.37839 98.7001 7.19739 98.7001 7.03286C98.6836 6.09501 98.5026 5.28878 98.1571 4.58128Z" fill="#0C2577"/>
</svg>
